<svg width="1402" height="1155" viewBox="0 0 1402 1155" fill="none" xmlns="http://www.w3.org/2000/svg">
<g clip-path="url(#clip0_205_2)">
<rect width="1402" height="1155" fill="white"/>
<g clip-path="url(#clip1_205_2)">
<path d="M540.408 923.039L522.389 904.508C519.558 901.751 518.056 898.225 518.112 894.467C518.339 891.112 520.322 888.417 523.557 887.073L552.73 874.955C558.233 872.668 565.863 874.745 570.869 879.893L580.821 890.127C585.827 895.276 586.571 901.809 582.589 905.661L561.486 926.077C559.146 928.342 555.477 929.304 551.421 928.721C546.923 927.911 543.055 925.915 540.408 923.039Z" fill="#3F3D56"/>
<path d="M228.122 659.519C268.661 603.492 322.604 553.493 386.497 512.726C440.702 478.153 510.112 484.399 510.112 484.399L510.611 484.026C531.573 468.431 557.188 457.598 584.244 452.887C611.301 448.175 638.592 449.795 662.695 457.543C668.966 459.531 673.915 460.558 676.52 460.035C724.027 450.473 728.988 422.03 772.959 401.799C849.95 366.376 1060.97 427.03 1074.04 502.598C1084.64 563.843 1190.91 600.315 1221.96 648.703C1226.82 656.269 1231.53 663.909 1236.09 671.623C1238.24 675.209 1240.35 678.818 1242.41 682.45C1263.71 719.573 1281.5 758.146 1295.65 797.887C1304.96 823.855 1312.03 850.477 1316.84 877.583C1335.08 984.867 1300.61 1061.57 1183.5 1034.19C1169.64 1030.95 1156.06 1027.96 1142.78 1025.24C1123.54 1021.29 1104.88 1017.85 1086.8 1014.92C1062.45 1010.96 1039.12 1007.87 1016.8 1005.65C1009.3 1004.9 1001.92 1004.23 994.652 1003.66C887.231 995.228 803.254 1006.23 736.058 1027.55C724.669 1031.16 713.759 1035.04 703.328 1039.22C687.405 1045.55 671.926 1052.7 657.001 1060.62C636.331 1071.65 616.725 1084.01 598.413 1097.55L597.407 1098.29C508.709 1163.81 465.902 1240.07 412.965 1250.45C186.672 1294.83 105.646 1073.47 143.634 864.795C145.547 854.28 147.762 843.816 150.281 833.402C151.396 828.746 152.58 824.108 153.832 819.487C157.055 807.428 160.7 795.477 164.755 783.7C166.295 779.197 167.895 774.722 169.556 770.276C171.359 765.481 173.208 760.72 175.151 755.995C189.251 721.352 206.964 688.68 228.122 659.519Z" fill="#6C63FF"/>
<path d="M921.716 665.033C910.748 653.774 875.308 661.839 864.803 668.631L845.789 680.936L885.458 721.729L904.471 709.425C914.97 702.625 932.659 676.307 921.716 665.033Z" fill="#3F3D56"/>
<path d="M593.871 607.176C593.675 606.34 593.744 605.456 594.07 604.598C594.397 603.741 594.971 602.934 595.746 602.248C596.52 601.562 597.471 601.016 598.518 600.657C599.565 600.298 600.678 600.136 601.761 600.184C602.645 600.223 603.491 600.401 604.249 600.711C605.007 601.02 605.663 601.454 606.177 601.987L811.035 812.656C811.552 813.187 811.919 813.806 812.116 814.479C812.312 815.151 812.335 815.863 812.182 816.574C812.029 817.285 811.703 817.981 811.223 818.623C810.744 819.264 810.12 819.839 809.387 820.313C807.905 821.27 806.071 821.762 804.287 821.681C802.503 821.6 800.915 820.953 799.87 819.882L595.012 609.212C594.438 608.626 594.048 607.93 593.871 607.176Z" fill="#3F3D56"/>
<path d="M876.548 743.32L817.99 683.101L537.341 864.721L595.899 924.94L876.548 743.32Z" fill="#E6E6E6"/>
<path d="M1200.66 389.996C1189.69 378.737 1154.25 386.802 1143.75 393.595L1124.74 405.899L1164.4 446.692L1183.42 434.388C1193.92 427.588 1211.61 401.27 1200.66 389.996Z" fill="#3F3D56"/>
<path d="M489.924 866.043L471.905 847.512C469.074 844.755 467.572 841.229 467.628 837.471C467.855 834.116 469.838 831.42 473.073 830.077L502.246 817.959C507.749 815.672 515.379 817.749 520.386 822.897L530.337 833.131C535.344 838.28 536.087 844.813 532.105 848.664L511.002 869.081C508.662 871.346 504.993 872.308 500.937 871.724C496.439 870.915 492.571 868.919 489.924 866.043Z" fill="#3F3D56"/>
<path d="M431.817 809.703L413.798 791.173C410.966 788.416 409.464 784.889 409.521 781.132C409.747 777.777 411.731 775.081 414.966 773.738L444.139 761.619C449.641 759.332 457.271 761.409 462.278 766.558L472.229 776.792C477.236 781.94 477.979 788.474 473.997 792.325L452.895 812.742C450.555 815.007 446.886 815.969 442.829 815.385C438.331 814.575 434.463 812.58 431.817 809.703Z" fill="#3F3D56"/>
<path d="M1107.76 499.177L1049.2 438.958L481.898 806.082L540.456 866.301L1107.76 499.177Z" fill="#E6E6E6"/>
<path d="M805.524 646.591L826.09 633.484L829.852 637.379L809.353 650.444L510.001 840.226L506.222 836.34" fill="#3F3D56"/>
<path d="M844.9 730.93L865.465 717.823L869.228 721.718L848.729 734.784L549.377 924.565L545.598 920.679" fill="#3F3D56"/>
<path d="M1065.93 543.853L986.591 462.258C997.354 453.363 1055.5 420.536 1074.97 420.296L1091.91 413.093L1146.7 469.432L1134.77 481.479C1132.64 495.718 1079.96 534.794 1065.93 543.853Z" fill="#E6E6E6"/>
<path d="M1146.58 472.349L1090.05 414.21C1087.96 412.064 1087.89 409.275 1089.89 407.981C1090.18 407.795 1090.5 407.646 1090.84 407.541L1138.39 392.722C1140.43 392.087 1143.09 392.907 1144.84 394.703L1182.33 433.259C1184.08 435.056 1184.45 437.361 1183.23 438.834L1154.72 473.236C1153.26 474.996 1150.06 474.975 1147.56 473.191C1147.2 472.934 1146.88 472.652 1146.58 472.349Z" fill="#E6E6E6"/>
<path d="M780.034 614.086C779.86 613.354 779.801 612.598 779.857 611.834C779.892 610.768 780.234 609.693 780.859 608.693C781.483 607.693 782.373 606.795 783.459 606.065L889.062 537.726C893.434 534.897 900.075 535.767 903.866 539.666L954.478 591.712C958.27 595.611 957.796 601.084 953.425 603.914L847.822 672.254C846.704 672.951 845.429 673.454 844.093 673.722C842.758 673.991 841.397 674.018 840.116 673.803C837.226 673.359 834.724 672.129 833.018 670.313L782.408 618.267C781.221 617.063 780.411 615.636 780.034 614.086Z" fill="#3F3D56"/>
<path d="M764.522 626.453L705.964 566.234L425.315 747.854L483.873 808.073L764.522 626.453Z" fill="#E6E6E6"/>
<path d="M1135.68 448.543L1118.51 430.883C1115.19 427.475 1117.92 421.195 1124.58 416.884C1131.24 412.574 1139.36 411.839 1142.67 415.247L1159.84 432.906C1163.16 436.314 1160.43 442.595 1153.77 446.905C1147.11 451.216 1138.99 451.95 1135.68 448.543Z" fill="#3F3D56"/>
<path d="M810.833 549.34C799.865 538.082 764.425 546.147 753.919 552.939L734.906 565.244L774.575 606.037L793.588 593.733C804.087 586.933 821.776 560.615 810.833 549.34Z" fill="#3F3D56"/>
<path d="M830.533 315.089C825.457 311.394 833.853 304.433 838.773 308.258C843.849 311.952 835.453 318.914 830.533 315.089Z" fill="#E6E6E6"/>
<path d="M1079.84 764.973C1074.76 761.279 1083.16 754.317 1088.08 758.142C1093.16 761.836 1084.76 768.798 1079.84 764.973Z" fill="#E6E6E6"/>
<path d="M894.365 461.974C889.288 458.279 897.684 451.318 902.604 455.143C907.68 458.837 899.284 465.799 894.365 461.974Z" fill="#E6E6E6"/>
<path d="M486.005 395.7C480.929 392.005 489.325 385.044 494.245 388.869C499.321 392.563 490.925 399.525 486.005 395.7Z" fill="#E6E6E6"/>
<path d="M1318.77 449.905C1313.69 446.211 1322.09 439.249 1327.01 443.074C1332.08 446.769 1323.69 453.73 1318.77 449.905Z" fill="#E6E6E6"/>
<path d="M1082.36 265.018C1077.28 261.324 1085.68 254.362 1090.6 258.187C1095.67 261.882 1087.28 268.843 1082.36 265.018Z" fill="#E6E6E6"/>
<path d="M1211.49 580.286L1211.64 577.146L1215.61 576.898L1215.71 574.804L1211.74 575.051L1211.89 571.911L1209.24 572.075L1209.1 575.216L1205.13 575.463L1205.03 577.557L1209 577.31L1208.85 580.451L1211.49 580.286Z" fill="#E6E6E6"/>
<path d="M781.49 175.087L781.637 171.946L785.601 171.699L785.699 169.605L781.735 169.851L781.88 166.71L779.237 166.874L779.09 170.016L775.125 170.264L775.028 172.357L778.993 172.111L778.847 175.251L781.49 175.087Z" fill="#E6E6E6"/>
<path d="M760.689 816.977C758.646 814.87 757.839 812.104 758.446 809.286C759.054 806.468 761.025 803.829 763.928 801.946L794.871 781.922C797.777 780.045 801.376 779.081 804.875 779.242C808.375 779.402 811.49 780.674 813.536 782.778C815.582 784.882 816.391 787.645 815.786 790.462C815.182 793.279 813.212 795.918 810.311 797.8L779.368 817.824C776.46 819.702 772.861 820.667 769.359 820.508C765.857 820.35 762.739 819.08 760.689 816.977Z" fill="#3F3D56"/>
<path d="M588.299 639.866C586.256 637.759 585.449 634.994 586.056 632.176C586.663 629.358 588.635 626.718 591.538 624.835L622.48 604.811C625.387 602.934 628.985 601.97 632.485 602.131C635.985 602.291 639.1 603.563 641.145 605.667C643.191 607.771 644.001 610.535 643.396 613.351C642.791 616.168 640.822 618.807 637.92 620.689L606.978 640.714C604.07 642.591 600.47 643.557 596.969 643.398C593.467 643.239 590.349 641.969 588.299 639.866Z" fill="#3F3D56"/>
<path d="M830.122 781.037L762.215 711.204C771.428 703.591 821.19 675.496 837.857 675.291L855.987 672.862L898.167 714.176L889.035 727.654C899.212 741.253 855.814 774.896 830.122 781.037Z" fill="#E6E6E6"/>
<path d="M824.684 742.512L807.511 724.853C804.197 721.445 808.667 714.034 817.474 708.335C826.28 702.636 836.143 700.771 839.457 704.179L856.63 721.839C859.943 725.246 855.474 732.657 846.667 738.356C837.861 744.055 827.997 745.92 824.684 742.512Z" fill="#3F3D56"/>
<path d="M720.282 583.097L740.847 569.99L744.61 573.885L724.111 586.951L424.759 776.732L420.98 772.846" fill="#3F3D56"/>
<path d="M719.239 665.345L651.332 595.512C656.542 581.647 704.704 551.051 726.974 559.598L745.104 557.17L787.284 598.484L778.152 611.962C776.332 624.149 731.242 657.593 719.239 665.345Z" fill="#E6E6E6"/>
<path d="M718.071 624.057L700.898 606.397C697.584 602.989 701.096 596.198 708.726 591.261C716.355 586.324 725.26 585.079 728.574 588.487L745.747 606.146C749.06 609.554 745.548 616.345 737.919 621.282C730.29 626.22 721.384 627.464 718.071 624.057Z" fill="#3F3D56"/>
<path d="M606.1 405.071C622.053 473.254 706.552 511.782 794.834 491.126C883.116 470.471 941.75 398.453 925.797 330.27C909.844 262.087 825.345 223.559 737.063 244.214C648.781 264.87 590.147 336.888 606.1 405.071Z" fill="#FF6584"/>
<path opacity="0.3" d="M960.153 666.864L1261.41 675.509L961.828 658.713C961.067 658.461 960.22 658.365 959.357 658.432C958.495 658.499 957.641 658.728 956.867 659.1C956.093 659.471 955.421 659.975 954.907 660.569C954.392 661.162 954.051 661.829 953.91 662.513C953.77 663.198 953.834 663.88 954.098 664.504C954.362 665.128 954.818 665.675 955.429 666.101C956.039 666.526 956.786 666.817 957.607 666.95C958.429 667.083 959.302 667.053 960.153 666.864Z" fill="#F0F0F0"/>
<path d="M717.769 1006.4C710.995 995.662 703.996 983.635 696.771 970.321C659.409 901.455 620.619 806.507 587.544 702.966C554.47 599.426 531.064 499.663 521.636 422.057C517.045 384.253 516.023 353.741 518.601 331.369C521.33 307.684 528.093 293.991 538.7 290.672C559.366 284.206 587.209 319.776 606.927 350.754L604.321 352.328C577.243 309.787 554.256 288.885 539.595 293.473C520.921 299.315 515.48 346.039 524.666 421.664C534.072 499.1 557.438 598.678 590.46 702.054C623.482 805.43 662.199 900.205 699.479 968.92C735.884 1036.03 767.476 1071.16 786.15 1065.32C801.654 1060.47 808.153 1027.41 804.451 972.233L807.494 971.992C810.184 1012.09 808.82 1061.31 787.044 1068.12C776.436 1071.44 762.95 1064.08 746.961 1046.26C737.846 1036.09 728.079 1022.75 717.769 1006.4Z" fill="#3F3D56"/>
<path d="M898.987 921.149C900.644 928.234 909.424 932.237 918.597 930.091C927.77 927.945 933.863 920.462 932.205 913.377C930.548 906.293 921.768 902.289 912.594 904.435C903.421 906.582 897.329 914.065 898.987 921.149Z" fill="#FF6584"/>
<path d="M467.998 1107.96C469.655 1115.04 478.435 1119.04 487.608 1116.9C496.781 1114.75 502.874 1107.27 501.216 1100.18C499.558 1093.1 490.779 1089.1 481.605 1091.24C472.432 1093.39 466.34 1100.87 467.998 1107.96Z" fill="#F2F2F2"/>
<path d="M264.507 694.129C267.738 707.942 284.857 715.747 302.741 711.562C320.626 707.378 332.504 692.788 329.272 678.975C326.04 665.163 308.922 657.357 291.038 661.542C273.153 665.726 261.275 680.316 264.507 694.129Z" fill="#F2F2F2"/>
<path d="M648.503 403.273C650.16 410.357 658.94 414.361 668.113 412.214C677.286 410.068 683.379 402.585 681.721 395.501C680.063 388.416 671.283 384.413 662.11 386.559C652.937 388.705 646.845 396.188 648.503 403.273Z" fill="#3F3D56"/>
<path d="M727.788 839.589L722.188 899.275L643.8 953.42L627.458 896.713L727.788 839.589Z" fill="#E6E6E6"/>
<path d="M822.354 682.721L790.019 722.416L591.541 850.456L572.275 839.94L822.354 682.721Z" fill="#CCCCCC"/>
<path d="M771.085 624.857L715.936 640.281L513.93 764.567L521.411 782.508L771.085 624.857Z" fill="#CCCCCC"/>
<path d="M545.569 675.52L475.428 660.491L387.967 704.132L447.562 735.337L545.569 675.52Z" fill="#E6E6E6"/>
<path d="M571.796 965.055C568.74 951.991 566.14 937.498 563.997 921.574C552.927 839.208 555.547 728.551 571.373 609.987C587.2 491.424 614.344 379.117 647.804 293.758C664.104 252.176 681.033 219.229 698.123 195.831C716.215 171.06 733.964 157.923 750.873 156.786C783.816 154.572 801.547 199.065 810.62 236.78L806.01 237.872C793.55 186.079 773.816 158.421 750.445 159.993C720.678 161.993 684.906 210.847 652.299 294.028C618.913 379.2 591.823 491.299 576.02 609.675C560.22 728.051 557.601 838.505 568.647 920.689C579.433 1000.95 602.693 1045.84 632.461 1043.84C657.176 1042.17 686.211 1008.21 714.219 948.206L718.643 948.643C698.291 992.244 666.746 1044.71 632.033 1047.04C615.123 1048.18 600.593 1037.21 588.846 1014.45C582.151 1001.47 576.449 984.939 571.796 965.055Z" fill="#3F3D56"/>
<path d="M416.236 774.599L388.492 792.053C388.257 783.197 377.076 777.526 365.037 780.157C352.997 782.788 342.278 793.244 342.55 802.092C332.857 802.657 327.119 796.65 321.939 791.482C316.759 786.314 308.989 781.256 299.169 784.028C291.284 786.254 285.439 792.99 283.874 799.058C282.31 805.125 284.072 810.695 285.827 816.058C272.651 810.391 251.343 814.524 237.896 825.354C224.449 836.184 220.395 852.479 228.776 862.008C214.577 857.211 192.264 864.196 181.705 876.742C171.06 889.39 173.077 903.638 177.291 915.521C187.961 945.795 210.079 971.845 240.875 990.412C252.654 997.494 265.978 1003.57 281.944 1005.44C297.91 1007.32 316.916 1004.52 332.509 995.649C311.836 1001.9 299.056 1022 301.544 1036.81C304.031 1051.62 317.655 1061.87 332.326 1069.86C351.836 1080.48 377.58 1088.52 405.034 1080.01C418.625 1075.8 430.825 1068.03 442.63 1060.45L465.515 1045.74C474.754 1039.8 484.144 1033.75 491.34 1026.38C498.535 1019.02 503.332 1010.01 501.519 1002.54C512.038 1001.89 522.936 1001.15 533.352 997.2C543.768 993.251 553.615 985.157 554.386 977.102C555.367 966.851 542.131 961.456 540.966 951.651C539.844 942.216 550.014 931.822 552.659 921.787C553.857 917.629 553.533 913.423 551.726 909.683C549.919 905.944 546.707 902.833 542.484 900.732C534.006 896.746 521.367 897.215 510.406 901.922C500.804 906.045 493.076 912.847 484.086 917.982C475.096 923.116 462.777 926.469 456.209 922.184C448.283 917.014 454.576 904.849 463.841 897.193C473.106 889.537 485.1 883.58 492.376 874.937C500.964 864.736 500.558 852.009 491.444 845.708C482.33 839.407 465.394 840.144 452.549 847.401C442.046 853.335 432.408 863.554 421.178 863.419C409.311 863.277 407.898 850.834 414.119 841.674C420.339 832.514 431.148 824.869 437.568 815.756C444.087 806.501 445.456 796.087 441.186 788.225C438.909 784.263 435.337 780.939 430.799 778.56C426.262 776.181 420.905 774.823 415.224 774.612" fill="#E6E6E6"/>
<path d="M779.907 856.488L778.185 883.228C777.829 888.761 776.935 893.123 775.503 896.316C774.13 899.449 771.748 901.827 768.354 903.449C764.961 905.07 760.104 906.043 753.785 906.365C749.143 906.603 745.258 906.328 742.132 905.541C739.009 904.698 736.585 902.956 734.86 900.314C733.19 897.67 732.516 893.862 732.836 888.888L734.774 858.794L749.875 858.023L748.142 884.931C747.951 887.893 747.945 890.149 748.124 891.699C748.362 893.191 749.014 894.327 750.078 895.109C751.146 895.834 752.827 896.138 755.12 896.021C756.518 895.949 757.841 895.742 759.09 895.4C760.338 895.058 761.204 894.596 761.687 894.014C762.234 893.318 762.642 890.874 762.912 886.682L764.807 857.259L779.907 856.488ZM813.086 863.147C817.112 862.941 820.214 864.12 822.39 866.682C824.626 869.186 825.531 873.735 825.106 880.329C824.79 885.247 824.055 889.295 822.903 892.473C821.754 895.595 820.532 897.69 819.237 898.759C817.942 899.828 815.737 900.748 812.621 901.52C809.561 902.289 806.41 902.757 803.166 902.923C802.215 902.971 800.625 902.997 798.395 902.999L797.628 914.903L783.245 916.223L786.522 865.34L798.267 864.74L799.31 870.619C800.897 868.477 802.849 866.734 805.165 865.39C807.537 864.043 810.177 863.296 813.086 863.147ZM807.851 892.49C808.495 892.012 809.024 890.731 809.436 888.649C809.853 886.511 810.122 884.492 810.245 882.592C810.446 879.463 810.204 877.164 809.518 875.695C808.832 874.226 807.315 873.552 804.966 873.672C803.288 873.757 801.712 874.005 800.236 874.415L799.037 893.024L801.37 893.156C802.094 893.174 803.126 893.149 804.469 893.081C806.37 892.984 807.498 892.787 807.851 892.49ZM852.003 861.325C854.632 861.191 857.36 861.246 860.187 861.492C863.017 861.681 866.315 861.986 870.078 862.407L867.929 895.769C867.415 903.761 864.358 910.1 858.761 914.786C858.054 915.379 856.513 915.932 854.139 916.443C851.765 916.954 849.096 917.285 846.132 917.437C839.7 917.766 834.665 917.187 831.026 915.702C831.049 914.476 831.237 912.851 831.591 910.828C832 908.801 832.382 907.194 832.737 906.007C836.724 906.416 840.647 906.521 844.506 906.324C846.464 906.224 848.121 906.028 849.477 905.736C850.886 905.497 851.771 905.173 852.132 904.765C852.608 904.295 853.052 902.601 853.463 899.684C853.569 898.898 853.671 897.751 853.768 896.243L853.903 894.147C852.372 896.286 850.487 897.858 848.248 898.864C846.009 899.87 844.023 900.417 842.289 900.505C837.591 900.746 834.139 899.39 831.932 896.439C829.725 893.489 828.812 889.052 829.194 883.128C829.446 879.216 830.213 875.528 831.495 872.065C832.837 868.543 834.502 866.063 836.489 864.625C837.774 863.723 839.799 863.007 842.564 862.476C845.39 861.886 848.536 861.502 852.003 861.325ZM848.417 889.748C850.486 889.643 852.381 889.212 854.102 888.455L855.231 870.936C854.623 870.855 853.707 870.791 852.484 870.742C851.928 870.714 851.091 870.729 849.973 870.787C848.239 870.875 847.137 871.099 846.668 871.457C846.024 871.935 845.44 873.218 844.915 875.306C844.45 877.335 844.146 879.467 844.002 881.703C843.804 884.776 844.001 886.911 844.593 888.106C845.241 889.298 846.515 889.846 848.417 889.748ZM900.93 858.657C901.657 858.62 902.406 858.666 903.178 858.793C904.006 858.918 904.609 859.082 904.986 859.286C904.907 860.515 904.636 862.562 904.173 865.426C903.713 868.235 903.334 870.232 903.034 871.417C902.479 871.389 901.446 871.414 899.936 871.492C896.412 871.672 893.268 872.027 890.502 872.558L888.828 898.545L874.483 899.278L876.967 860.718L888.963 860.105L890.241 866.222L890.325 866.218C892.084 864.011 893.927 862.218 895.856 860.838C897.784 859.459 899.475 858.732 900.93 858.657ZM926.716 896.608L925.714 891.396C922.871 895.719 919.157 897.997 914.571 898.232C910.824 898.423 907.815 897.546 905.543 895.602C903.331 893.598 902.347 890.696 902.592 886.896C902.743 884.549 903.546 882.475 904.999 880.674C906.513 878.814 908.495 877.46 910.947 876.61C914.136 875.556 919.006 874.806 925.557 874.36C925.795 870.671 925.753 868.724 925.432 868.517C925.166 868.308 924.279 868.242 922.769 868.319C921.818 868.368 920.5 868.491 918.815 868.689C916.123 868.937 912.468 869.431 907.85 870.168C907.597 867.173 907.47 863.949 907.47 860.496C910.473 859.729 913.61 859.068 916.879 858.511C920.151 857.898 923.074 857.526 925.646 857.394C930.121 857.166 933.428 857.749 935.567 859.143C937.711 860.482 939.041 862.335 939.557 864.704C940.074 867.073 940.185 870.103 939.892 873.794L939.014 886.121L938.629 895.999L926.716 896.608ZM920.042 888.594C921.496 888.52 923.052 888.162 924.709 887.52L925.109 881.317L924.438 881.351C920.299 881.563 917.992 881.904 917.516 882.374C917.218 882.667 916.967 883.098 916.764 883.665C916.616 884.23 916.526 884.764 916.493 885.267C916.407 886.608 916.655 887.514 917.238 887.986C917.821 888.457 918.755 888.66 920.042 888.594ZM986.637 842.831L983.36 893.713L971.531 894.318L970.773 887.923C969.514 890.16 967.752 891.977 965.488 893.373C963.224 894.77 960.722 895.539 957.982 895.679C953.62 895.902 950.225 894.516 947.798 891.52C945.427 888.522 944.443 883.894 944.846 877.635C945.152 872.885 945.963 868.944 947.28 865.813C948.596 862.683 950.053 860.408 951.649 858.99C952.654 858.103 954.628 857.306 957.572 856.598C960.573 855.888 963.219 855.474 965.512 855.357C967.525 855.254 969.582 855.344 971.682 855.626C971.687 852.952 971.699 851.476 971.717 851.196L972.17 844.155L986.637 842.831ZM964.997 884.124C966.507 884.047 968.089 883.716 969.744 883.13L970.915 864.94C969.308 864.799 967.525 864.779 965.568 864.879C963.89 864.964 962.818 865.158 962.353 865.461C961.709 865.939 961.123 867.25 960.595 869.394C960.126 871.479 959.818 873.667 959.67 875.958C959.45 879.367 959.808 881.605 960.743 882.671C961.733 883.734 963.152 884.219 964.997 884.124ZM1014.3 882.106C1015.69 882.035 1018.3 881.762 1022.12 881.288C1022.63 881.263 1023.55 881.16 1024.9 880.979L1025.61 889.549C1021.17 891.781 1015.51 893.073 1008.63 893.424C1002.2 893.753 997.357 892.385 994.098 889.321C990.895 886.254 989.504 881.452 989.925 874.913C990.141 871.56 990.77 868.297 991.81 865.125C992.906 861.95 994.053 859.719 995.251 858.432C996.505 857.143 998.754 855.969 1002 854.912C1005.25 853.855 1008.43 853.247 1011.57 853.087C1016.6 852.829 1020.32 853.531 1022.72 855.19C1025.12 856.85 1026.61 859.252 1027.19 862.398C1027.77 865.487 1027.89 869.687 1027.55 874.996C1023.73 875.414 1020 875.715 1016.37 875.901L1004.46 876.51C1004.34 878.298 1004.62 879.621 1005.29 880.478C1006.01 881.332 1007.06 881.863 1008.44 882.071C1009.83 882.223 1011.78 882.235 1014.3 882.106ZM1006.14 863.306C1005.8 863.491 1005.5 864.231 1005.25 865.524C1005 866.818 1004.79 868.277 1004.63 869.901L1008.99 869.678C1011.62 869.543 1013.52 869.418 1014.7 869.302C1014.87 866.62 1014.61 864.74 1013.89 863.662C1013.24 862.582 1011.99 862.088 1010.14 862.183C1008.63 862.26 1007.3 862.634 1006.14 863.306ZM1062.95 873.854C1062.89 874.86 1062.85 875.921 1062.83 877.036C1062.82 878.095 1062.94 878.757 1063.21 879.022C1063.57 879.393 1064.93 879.518 1067.28 879.398L1070.14 879.169C1070.47 881.825 1070.52 884.914 1070.29 888.435C1069.2 888.88 1067.62 889.324 1065.52 889.765C1063.49 890.203 1061.55 890.469 1059.7 890.564C1055.84 890.761 1052.91 890.075 1050.89 888.508C1048.93 886.881 1048.07 884.279 1048.3 880.703L1049.63 860.081L1043.33 860.403L1043.83 852.775L1050.16 851.866L1054.52 842.453L1065.05 841.33L1064.42 851.138L1073.31 850.683L1072.78 858.898L1063.89 859.352L1062.95 873.854ZM1093.67 889.162C1086.96 889.505 1082.03 888.197 1078.87 885.239C1075.78 882.223 1074.45 877.305 1074.89 870.487C1075.13 866.743 1075.68 863.457 1076.53 860.628C1077.44 857.741 1078.43 855.713 1079.51 854.544C1080.89 853.025 1083.32 851.703 1086.79 850.579C1090.32 849.452 1093.59 848.811 1096.61 848.657C1103.83 848.288 1108.87 849.562 1111.75 852.478C1114.63 855.395 1115.85 860.234 1115.42 866.996C1114.95 874.261 1112.95 879.682 1109.43 883.26C1105.92 886.837 1100.66 888.805 1093.67 889.162ZM1094.55 879.341C1096.73 879.23 1098.21 878.402 1098.98 876.859C1099.75 875.26 1100.26 872.505 1100.51 868.593C1100.69 865.855 1100.68 863.766 1100.5 862.327C1100.32 860.833 1099.85 859.77 1099.11 859.14C1098.43 858.45 1097.31 858.146 1095.75 858.226C1093.51 858.34 1092.21 858.601 1091.85 859.01C1091.38 859.424 1090.93 860.672 1090.52 862.754C1090.11 864.836 1089.83 866.994 1089.69 869.23C1089.44 873.03 1089.63 875.694 1090.26 877.221C1090.94 878.746 1092.37 879.453 1094.55 879.341ZM1155.36 837.048C1159.89 836.817 1163.69 837.04 1166.77 837.718C1169.85 838.397 1172.23 839.89 1173.93 842.199C1175.68 844.449 1176.41 847.781 1176.12 852.196C1176 854.152 1175.56 856.179 1174.81 858.279C1174.12 860.319 1173.28 862.117 1172.29 863.671C1171.36 865.223 1170.54 866.239 1169.84 866.721C1169.02 867.32 1167.26 867.855 1164.55 868.328C1161.85 868.744 1158.68 869.046 1155.04 869.231C1153.76 869.297 1151.78 869.343 1149.1 869.368L1148.07 885.295L1132.97 886.067L1136.05 838.286C1141.93 837.818 1148.37 837.406 1155.36 837.048ZM1160.26 858.27C1160.87 857.515 1161.24 856.048 1161.38 853.868C1161.57 851.018 1161.08 849.038 1159.93 847.927C1158.83 846.814 1156.8 846.333 1153.83 846.484C1152.83 846.536 1151.73 846.675 1150.55 846.903L1149.72 859.644C1150.28 859.672 1151.37 859.644 1152.99 859.561C1157.3 859.341 1159.72 858.911 1160.26 858.27ZM1222.96 881.468L1207.11 882.278L1205.03 870.353C1204.95 869.912 1204.8 869.167 1204.59 868.12C1204.44 867.013 1204.21 866.217 1203.91 865.732C1203.61 865.19 1203.16 864.851 1202.55 864.715C1200.98 864.851 1198.69 864.996 1195.67 865.15L1194.52 882.921L1179.42 883.693L1182.47 836.331C1189.27 835.482 1195.61 834.908 1201.48 834.608C1206.79 834.336 1211.07 834.563 1214.31 835.289C1217.56 835.958 1219.93 837.313 1221.41 839.354C1222.96 841.336 1223.61 844.143 1223.38 847.776C1223.16 851.185 1222.2 853.907 1220.51 855.943C1218.82 857.923 1216.23 859.198 1212.74 859.766L1212.71 860.269C1214.65 860.336 1216.23 860.896 1217.45 861.948C1218.72 862.941 1219.53 864.265 1219.87 865.919L1222.96 881.468ZM1196.28 855.678C1196.78 855.708 1197.75 855.686 1199.21 855.611C1203.52 855.391 1206.06 854.899 1206.83 854.136C1207.54 853.431 1207.98 851.849 1208.14 849.39C1208.29 847.099 1207.77 845.566 1206.6 844.79C1205.47 844.012 1203.54 843.693 1200.8 843.833C1200.19 843.864 1198.93 843.985 1197.02 844.193L1196.28 855.678ZM1251.34 881.104C1243 881.53 1236.87 879.894 1232.92 876.196C1229.04 872.44 1227.38 866.203 1227.94 857.485C1228.49 848.935 1231.19 842.586 1236.02 838.44C1240.86 834.294 1247.06 832.028 1254.61 831.642C1270.49 830.83 1277.92 838.332 1276.9 854.147C1276.39 862.139 1274.03 868.526 1269.82 873.308C1265.66 878.088 1259.5 880.686 1251.34 881.104ZM1251.64 871.229C1253.21 871.149 1254.54 870.831 1255.63 870.273C1256.73 869.66 1257.63 868.667 1258.33 867.295C1259.65 864.943 1260.48 861.169 1260.82 855.972C1261.14 850.886 1260.79 847.228 1259.77 844.997C1258.74 842.71 1256.67 841.59 1253.54 841.639C1252.37 841.699 1251.13 841.901 1249.83 842.246C1248.58 842.533 1247.78 842.908 1247.41 843.372C1246.69 844.189 1246.05 845.893 1245.5 848.483C1245 851.015 1244.65 853.79 1244.46 856.808C1244.16 861.502 1244.38 864.916 1245.14 867.05C1245.65 868.639 1246.44 869.769 1247.51 870.438C1248.58 871.051 1249.96 871.315 1251.64 871.229Z" fill="white"/>
</g>
</g>
<defs>
<clipPath id="clip0_205_2">
<rect width="1402" height="1155" fill="white"/>
</clipPath>
<clipPath id="clip1_205_2">
<rect width="1110.85" height="1316.84" fill="white" transform="translate(1278.07 -157.968) rotate(76.8311)"/>
</clipPath>
</defs>
</svg>
